<?xml version="1.0" encoding="UTF-8" standalone="no"?>
<!DOCTYPE svg PUBLIC "-//W3C//DTD SVG 1.1//EN"
 "http://www.w3.org/Graphics/SVG/1.1/DTD/svg11.dtd">
<!-- Generated by graphviz version 14.1.3 (20260303.0454)
 -->
<!-- Pages: 1 -->
<svg width="2887pt" height="236pt"
 viewBox="0.00 0.00 2887.00 236.00" xmlns="http://www.w3.org/2000/svg" xmlns:xlink="http://www.w3.org/1999/xlink">
<g id="graph0" class="graph" transform="scale(1 1) rotate(0) translate(4 232)">
<polygon fill="white" stroke="none" points="-4,4 -4,-232 2883.25,-232 2883.25,4 -4,4"/>
<!-- 2578104634368 -->
<g id="node1" class="node">
<title>2578104634368</title>
<polygon fill="none" stroke="black" points="661.5,-82.5 661.5,-118.5 900,-118.5 900,-82.5 661.5,-82.5"/>
<text xml:space="preserve" text-anchor="middle" x="698" y="-95.7" font-family="Times New Roman,serif" font-size="14.00">submation</text>
<polyline fill="none" stroke="black" points="734.5,-83 734.5,-118.5"/>
<text xml:space="preserve" text-anchor="middle" x="776.62" y="-95.7" font-family="Times New Roman,serif" font-size="14.00">data &#45;6.0000</text>
<polyline fill="none" stroke="black" points="818.75,-83 818.75,-118.5"/>
<text xml:space="preserve" text-anchor="middle" x="859.38" y="-95.7" font-family="Times New Roman,serif" font-size="14.00">grad 0.5000</text>
</g>
<!-- 2578104512336+ -->
<g id="node19" class="node">
<title>2578104512336+</title>
<ellipse fill="none" stroke="black" cx="963" cy="-127.5" rx="27" ry="18"/>
<text xml:space="preserve" text-anchor="middle" x="963" y="-122.45" font-family="Times New Roman,serif" font-size="14.00">+</text>
</g>
<!-- 2578104634368&#45;&gt;2578104512336+ -->
<g id="edge12" class="edge">
<title>2578104634368&#45;&gt;2578104512336+</title>
<path fill="none" stroke="black" d="M900.47,-118.28C909.21,-119.59 917.55,-120.84 925.11,-121.97"/>
<polygon fill="black" stroke="black" points="924.38,-125.4 934.79,-123.42 925.42,-118.48 924.38,-125.4"/>
</g>
<!-- 2578104634368+ -->
<g id="node2" class="node">
<title>2578104634368+</title>
<ellipse fill="none" stroke="black" cx="598.5" cy="-100.5" rx="27" ry="18"/>
<text xml:space="preserve" text-anchor="middle" x="598.5" y="-95.45" font-family="Times New Roman,serif" font-size="14.00">+</text>
</g>
<!-- 2578104634368+&#45;&gt;2578104634368 -->
<g id="edge1" class="edge">
<title>2578104634368+&#45;&gt;2578104634368</title>
<path fill="none" stroke="black" d="M625.71,-100.5C632.78,-100.5 640.93,-100.5 649.72,-100.5"/>
<polygon fill="black" stroke="black" points="649.64,-104 659.64,-100.5 649.64,-97 649.64,-104"/>
</g>
<!-- 2578110242768 -->
<g id="node3" class="node">
<title>2578110242768</title>
<polygon fill="none" stroke="black" points="1.5,-55.5 1.5,-91.5 196.5,-91.5 196.5,-55.5 1.5,-55.5"/>
<text xml:space="preserve" text-anchor="middle" x="16.25" y="-68.7" font-family="Times New Roman,serif" font-size="14.00">x1</text>
<polyline fill="none" stroke="black" points="31,-56 31,-91.5"/>
<text xml:space="preserve" text-anchor="middle" x="70.88" y="-68.7" font-family="Times New Roman,serif" font-size="14.00">data 2.0000</text>
<polyline fill="none" stroke="black" points="110.75,-56 110.75,-91.5"/>
<text xml:space="preserve" text-anchor="middle" x="153.62" y="-68.7" font-family="Times New Roman,serif" font-size="14.00">grad &#45;1.5000</text>
</g>
<!-- 2578110396752* -->
<g id="node21" class="node">
<title>2578110396752*</title>
<ellipse fill="none" stroke="black" cx="261" cy="-73.5" rx="27" ry="18"/>
<text xml:space="preserve" text-anchor="middle" x="261" y="-68.45" font-family="Times New Roman,serif" font-size="14.00">*</text>
</g>
<!-- 2578110242768&#45;&gt;2578110396752* -->
<g id="edge26" class="edge">
<title>2578110242768&#45;&gt;2578110396752*</title>
<path fill="none" stroke="black" d="M196.76,-73.5C205.77,-73.5 214.47,-73.5 222.4,-73.5"/>
<polygon fill="black" stroke="black" points="222.25,-77 232.25,-73.5 222.25,-70 222.25,-77"/>
</g>
<!-- 2578111026704 -->
<g id="node4" class="node">
<title>2578111026704</title>
<polygon fill="none" stroke="black" points="1953.75,-108.5 1953.75,-144.5 2139,-144.5 2139,-108.5 1953.75,-108.5"/>
<text xml:space="preserve" text-anchor="middle" x="1963.62" y="-121.7" font-family="Times New Roman,serif" font-size="14.00"> </text>
<polyline fill="none" stroke="black" points="1973.5,-109 1973.5,-144.5"/>
<text xml:space="preserve" text-anchor="middle" x="2013.38" y="-121.7" font-family="Times New Roman,serif" font-size="14.00">data 6.8284</text>
<polyline fill="none" stroke="black" points="2053.25,-109 2053.25,-144.5"/>
<text xml:space="preserve" text-anchor="middle" x="2096.12" y="-121.7" font-family="Times New Roman,serif" font-size="14.00">grad &#45;0.1036</text>
</g>
<!-- 2578111026896pow -->
<g id="node15" class="node">
<title>2578111026896pow</title>
<ellipse fill="none" stroke="black" cx="2265.38" cy="-126.5" rx="27" ry="18"/>
<text xml:space="preserve" text-anchor="middle" x="2265.38" y="-121.45" font-family="Times New Roman,serif" font-size="14.00">pow</text>
</g>
<!-- 2578111026704&#45;&gt;2578111026896pow -->
<g id="edge20" class="edge">
<title>2578111026704&#45;&gt;2578111026896pow</title>
<path fill="none" stroke="black" d="M2139.4,-126.5C2170.04,-126.5 2202.46,-126.5 2226.61,-126.5"/>
<polygon fill="black" stroke="black" points="2226.57,-130 2236.57,-126.5 2226.57,-123 2226.57,-130"/>
</g>
<!-- 2578111026704+ -->
<g id="node5" class="node">
<title>2578111026704+</title>
<ellipse fill="none" stroke="black" cx="1890.75" cy="-126.5" rx="27" ry="18"/>
<text xml:space="preserve" text-anchor="middle" x="1890.75" y="-121.45" font-family="Times New Roman,serif" font-size="14.00">+</text>
</g>
<!-- 2578111026704+&#45;&gt;2578111026704 -->
<g id="edge2" class="edge">
<title>2578111026704+&#45;&gt;2578111026704</title>
<path fill="none" stroke="black" d="M1918.16,-126.5C1925.2,-126.5 1933.25,-126.5 1941.8,-126.5"/>
<polygon fill="black" stroke="black" points="1941.79,-130 1951.79,-126.5 1941.79,-123 1941.79,-130"/>
</g>
<!-- 2578111203920 -->
<g id="node6" class="node">
<title>2578111203920</title>
<polygon fill="none" stroke="black" points="0,-0.5 0,-36.5 198,-36.5 198,-0.5 0,-0.5"/>
<text xml:space="preserve" text-anchor="middle" x="16.25" y="-13.7" font-family="Times New Roman,serif" font-size="14.00">w1</text>
<polyline fill="none" stroke="black" points="32.5,-1 32.5,-36.5"/>
<text xml:space="preserve" text-anchor="middle" x="74.62" y="-13.7" font-family="Times New Roman,serif" font-size="14.00">data &#45;3.0000</text>
<polyline fill="none" stroke="black" points="116.75,-1 116.75,-36.5"/>
<text xml:space="preserve" text-anchor="middle" x="157.38" y="-13.7" font-family="Times New Roman,serif" font-size="14.00">grad 1.0000</text>
</g>
<!-- 2578111203920&#45;&gt;2578110396752* -->
<g id="edge21" class="edge">
<title>2578111203920&#45;&gt;2578110396752*</title>
<path fill="none" stroke="black" d="M168.91,-36.94C178.74,-39.93 188.67,-43.15 198,-46.5 207.96,-50.07 218.58,-54.47 228.18,-58.68"/>
<polygon fill="black" stroke="black" points="226.54,-61.78 237.1,-62.67 229.4,-55.39 226.54,-61.78"/>
</g>
<!-- 2578111565408 -->
<g id="node7" class="node">
<title>2578111565408</title>
<polygon fill="none" stroke="black" points="1644.75,-136.5 1644.75,-172.5 1825.5,-172.5 1825.5,-136.5 1644.75,-136.5"/>
<text xml:space="preserve" text-anchor="middle" x="1654.62" y="-149.7" font-family="Times New Roman,serif" font-size="14.00"> </text>
<polyline fill="none" stroke="black" points="1664.5,-137 1664.5,-172.5"/>
<text xml:space="preserve" text-anchor="middle" x="1704.38" y="-149.7" font-family="Times New Roman,serif" font-size="14.00">data 5.8284</text>
<polyline fill="none" stroke="black" points="1744.25,-137 1744.25,-172.5"/>
<text xml:space="preserve" text-anchor="middle" x="1784.88" y="-149.7" font-family="Times New Roman,serif" font-size="14.00">grad 0.0429</text>
</g>
<!-- 2578111565408&#45;&gt;2578111026704+ -->
<g id="edge28" class="edge">
<title>2578111565408&#45;&gt;2578111026704+</title>
<path fill="none" stroke="black" d="M1825.93,-138.13C1835.48,-136.39 1844.76,-134.7 1853.14,-133.17"/>
<polygon fill="black" stroke="black" points="1853.64,-136.64 1862.85,-131.4 1852.39,-129.75 1853.64,-136.64"/>
</g>
<!-- 2578141551024+ -->
<g id="node26" class="node">
<title>2578141551024+</title>
<ellipse fill="none" stroke="black" cx="1890.75" cy="-181.5" rx="27" ry="18"/>
<text xml:space="preserve" text-anchor="middle" x="1890.75" y="-176.45" font-family="Times New Roman,serif" font-size="14.00">+</text>
</g>
<!-- 2578111565408&#45;&gt;2578141551024+ -->
<g id="edge16" class="edge">
<title>2578111565408&#45;&gt;2578141551024+</title>
<path fill="none" stroke="black" d="M1825.93,-170.28C1835.48,-171.96 1844.76,-173.59 1853.14,-175.07"/>
<polygon fill="black" stroke="black" points="1852.39,-178.49 1862.85,-176.77 1853.61,-171.59 1852.39,-178.49"/>
</g>
<!-- 2578111565408exp -->
<g id="node8" class="node">
<title>2578111565408exp</title>
<ellipse fill="none" stroke="black" cx="1579.5" cy="-154.5" rx="27" ry="18"/>
<text xml:space="preserve" text-anchor="middle" x="1579.5" y="-149.45" font-family="Times New Roman,serif" font-size="14.00">exp</text>
</g>
<!-- 2578111565408exp&#45;&gt;2578111565408 -->
<g id="edge3" class="edge">
<title>2578111565408exp&#45;&gt;2578111565408</title>
<path fill="none" stroke="black" d="M1606.91,-154.5C1614.62,-154.5 1623.54,-154.5 1633.01,-154.5"/>
<polygon fill="black" stroke="black" points="1632.82,-158 1642.82,-154.5 1632.82,-151 1632.82,-158"/>
</g>
<!-- 2578111088720 -->
<g id="node9" class="node">
<title>2578111088720</title>
<polygon fill="none" stroke="black" points="1027.5,-164.5 1027.5,-200.5 1208.25,-200.5 1208.25,-164.5 1027.5,-164.5"/>
<text xml:space="preserve" text-anchor="middle" x="1037.38" y="-177.7" font-family="Times New Roman,serif" font-size="14.00"> </text>
<polyline fill="none" stroke="black" points="1047.25,-165 1047.25,-200.5"/>
<text xml:space="preserve" text-anchor="middle" x="1087.12" y="-177.7" font-family="Times New Roman,serif" font-size="14.00">data 2.0000</text>
<polyline fill="none" stroke="black" points="1127,-165 1127,-200.5"/>
<text xml:space="preserve" text-anchor="middle" x="1167.62" y="-177.7" font-family="Times New Roman,serif" font-size="14.00">grad 0.2203</text>
</g>
<!-- 2578111565168* -->
<g id="node23" class="node">
<title>2578111565168*</title>
<ellipse fill="none" stroke="black" cx="1272.75" cy="-154.5" rx="27" ry="18"/>
<text xml:space="preserve" text-anchor="middle" x="1272.75" y="-149.45" font-family="Times New Roman,serif" font-size="14.00">*</text>
</g>
<!-- 2578111088720&#45;&gt;2578111565168* -->
<g id="edge22" class="edge">
<title>2578111088720&#45;&gt;2578111565168*</title>
<path fill="none" stroke="black" d="M1208.69,-166.05C1217.94,-164.35 1226.93,-162.71 1235.08,-161.22"/>
<polygon fill="black" stroke="black" points="1235.67,-164.67 1244.87,-159.42 1234.41,-157.78 1235.67,-164.67"/>
</g>
<!-- 2578102336128 -->
<g id="node10" class="node">
<title>2578102336128</title>
<polygon fill="none" stroke="black" points="2.25,-165.5 2.25,-201.5 195.75,-201.5 195.75,-165.5 2.25,-165.5"/>
<text xml:space="preserve" text-anchor="middle" x="18.5" y="-178.7" font-family="Times New Roman,serif" font-size="14.00">w2</text>
<polyline fill="none" stroke="black" points="34.75,-166 34.75,-201.5"/>
<text xml:space="preserve" text-anchor="middle" x="74.62" y="-178.7" font-family="Times New Roman,serif" font-size="14.00">data 1.0000</text>
<polyline fill="none" stroke="black" points="114.5,-166 114.5,-201.5"/>
<text xml:space="preserve" text-anchor="middle" x="155.12" y="-178.7" font-family="Times New Roman,serif" font-size="14.00">grad 0.0000</text>
</g>
<!-- 2578104736016* -->
<g id="node17" class="node">
<title>2578104736016*</title>
<ellipse fill="none" stroke="black" cx="261" cy="-128.5" rx="27" ry="18"/>
<text xml:space="preserve" text-anchor="middle" x="261" y="-123.45" font-family="Times New Roman,serif" font-size="14.00">*</text>
</g>
<!-- 2578102336128&#45;&gt;2578104736016* -->
<g id="edge25" class="edge">
<title>2578102336128&#45;&gt;2578104736016*</title>
<path fill="none" stroke="black" d="M172.12,-165.01C180.9,-162.35 189.7,-159.5 198,-156.5 208.09,-152.86 218.82,-148.27 228.47,-143.88"/>
<polygon fill="black" stroke="black" points="229.86,-147.09 237.45,-139.69 226.9,-140.75 229.86,-147.09"/>
</g>
<!-- 2578141550576 -->
<g id="node11" class="node">
<title>2578141550576</title>
<polygon fill="none" stroke="black" points="1642.5,-191.5 1642.5,-227.5 1827.75,-227.5 1827.75,-191.5 1642.5,-191.5"/>
<text xml:space="preserve" text-anchor="middle" x="1652.38" y="-204.7" font-family="Times New Roman,serif" font-size="14.00"> </text>
<polyline fill="none" stroke="black" points="1662.25,-192 1662.25,-227.5"/>
<text xml:space="preserve" text-anchor="middle" x="1704.38" y="-204.7" font-family="Times New Roman,serif" font-size="14.00">data &#45;1.0000</text>
<polyline fill="none" stroke="black" points="1746.5,-192 1746.5,-227.5"/>
<text xml:space="preserve" text-anchor="middle" x="1787.12" y="-204.7" font-family="Times New Roman,serif" font-size="14.00">grad 0.1464</text>
</g>
<!-- 2578141550576&#45;&gt;2578141551024+ -->
<g id="edge14" class="edge">
<title>2578141550576&#45;&gt;2578141551024+</title>
<path fill="none" stroke="black" d="M1828.15,-192.73C1836.89,-191.13 1845.36,-189.59 1853.08,-188.18"/>
<polygon fill="black" stroke="black" points="1853.45,-191.67 1862.66,-186.44 1852.19,-184.79 1853.45,-191.67"/>
</g>
<!-- 2578101985440 -->
<g id="node12" class="node">
<title>2578101985440</title>
<polygon fill="none" stroke="black" points="2698.5,-135.5 2698.5,-171.5 2879.25,-171.5 2879.25,-135.5 2698.5,-135.5"/>
<text xml:space="preserve" text-anchor="middle" x="2708.38" y="-148.7" font-family="Times New Roman,serif" font-size="14.00"> </text>
<polyline fill="none" stroke="black" points="2718.25,-136 2718.25,-171.5"/>
<text xml:space="preserve" text-anchor="middle" x="2758.12" y="-148.7" font-family="Times New Roman,serif" font-size="14.00">data 0.7071</text>
<polyline fill="none" stroke="black" points="2798,-136 2798,-171.5"/>
<text xml:space="preserve" text-anchor="middle" x="2838.62" y="-148.7" font-family="Times New Roman,serif" font-size="14.00">grad 1.0000</text>
</g>
<!-- 2578101985440* -->
<g id="node13" class="node">
<title>2578101985440*</title>
<ellipse fill="none" stroke="black" cx="2635.5" cy="-153.5" rx="27" ry="18"/>
<text xml:space="preserve" text-anchor="middle" x="2635.5" y="-148.45" font-family="Times New Roman,serif" font-size="14.00">*</text>
</g>
<!-- 2578101985440*&#45;&gt;2578101985440 -->
<g id="edge4" class="edge">
<title>2578101985440*&#45;&gt;2578101985440</title>
<path fill="none" stroke="black" d="M2662.87,-153.5C2670.01,-153.5 2678.2,-153.5 2686.89,-153.5"/>
<polygon fill="black" stroke="black" points="2686.61,-157 2696.61,-153.5 2686.61,-150 2686.61,-157"/>
</g>
<!-- 2578111026896 -->
<g id="node14" class="node">
<title>2578111026896</title>
<polygon fill="none" stroke="black" points="2391.75,-112.5 2391.75,-148.5 2572.5,-148.5 2572.5,-112.5 2391.75,-112.5"/>
<text xml:space="preserve" text-anchor="middle" x="2401.62" y="-125.7" font-family="Times New Roman,serif" font-size="14.00"> </text>
<polyline fill="none" stroke="black" points="2411.5,-113 2411.5,-148.5"/>
<text xml:space="preserve" text-anchor="middle" x="2451.38" y="-125.7" font-family="Times New Roman,serif" font-size="14.00">data 0.1464</text>
<polyline fill="none" stroke="black" points="2491.25,-113 2491.25,-148.5"/>
<text xml:space="preserve" text-anchor="middle" x="2531.88" y="-125.7" font-family="Times New Roman,serif" font-size="14.00">grad 4.8284</text>
</g>
<!-- 2578111026896&#45;&gt;2578101985440* -->
<g id="edge19" class="edge">
<title>2578111026896&#45;&gt;2578101985440*</title>
<path fill="none" stroke="black" d="M2572.93,-144.15C2581.54,-145.45 2589.89,-146.72 2597.53,-147.88"/>
<polygon fill="black" stroke="black" points="2596.96,-151.34 2607.37,-149.38 2598.01,-144.41 2596.96,-151.34"/>
</g>
<!-- 2578111026896pow&#45;&gt;2578111026896 -->
<g id="edge5" class="edge">
<title>2578111026896pow&#45;&gt;2578111026896</title>
<path fill="none" stroke="black" d="M2292.71,-126.99C2314.85,-127.4 2347.98,-128.02 2380.32,-128.62"/>
<polygon fill="black" stroke="black" points="2380.13,-132.12 2390.19,-128.81 2380.26,-125.12 2380.13,-132.12"/>
</g>
<!-- 2578104736016 -->
<g id="node16" class="node">
<title>2578104736016</title>
<polygon fill="none" stroke="black" points="326.25,-110.5 326.25,-146.5 533.25,-146.5 533.25,-110.5 326.25,-110.5"/>
<text xml:space="preserve" text-anchor="middle" x="349.25" y="-123.7" font-family="Times New Roman,serif" font-size="14.00">x2w2</text>
<polyline fill="none" stroke="black" points="372.25,-111 372.25,-146.5"/>
<text xml:space="preserve" text-anchor="middle" x="412.12" y="-123.7" font-family="Times New Roman,serif" font-size="14.00">data 0.0000</text>
<polyline fill="none" stroke="black" points="452,-111 452,-146.5"/>
<text xml:space="preserve" text-anchor="middle" x="492.62" y="-123.7" font-family="Times New Roman,serif" font-size="14.00">grad 0.5000</text>
</g>
<!-- 2578104736016&#45;&gt;2578104634368+ -->
<g id="edge13" class="edge">
<title>2578104736016&#45;&gt;2578104634368+</title>
<path fill="none" stroke="black" d="M533.51,-111.25C543.16,-109.62 552.45,-108.06 560.82,-106.66"/>
<polygon fill="black" stroke="black" points="561.2,-110.15 570.48,-105.04 560.04,-103.24 561.2,-110.15"/>
</g>
<!-- 2578104736016*&#45;&gt;2578104736016 -->
<g id="edge6" class="edge">
<title>2578104736016*&#45;&gt;2578104736016</title>
<path fill="none" stroke="black" d="M288.42,-128.5C296.08,-128.5 304.96,-128.5 314.47,-128.5"/>
<polygon fill="black" stroke="black" points="314.37,-132 324.37,-128.5 314.37,-125 314.37,-132"/>
</g>
<!-- 2578104512336 -->
<g id="node18" class="node">
<title>2578104512336</title>
<polygon fill="none" stroke="black" points="1026,-109.5 1026,-145.5 1209.75,-145.5 1209.75,-109.5 1026,-109.5"/>
<text xml:space="preserve" text-anchor="middle" x="1037.38" y="-122.7" font-family="Times New Roman,serif" font-size="14.00">n</text>
<polyline fill="none" stroke="black" points="1048.75,-110 1048.75,-145.5"/>
<text xml:space="preserve" text-anchor="middle" x="1088.62" y="-122.7" font-family="Times New Roman,serif" font-size="14.00">data 0.8814</text>
<polyline fill="none" stroke="black" points="1128.5,-110 1128.5,-145.5"/>
<text xml:space="preserve" text-anchor="middle" x="1169.12" y="-122.7" font-family="Times New Roman,serif" font-size="14.00">grad 0.5000</text>
</g>
<!-- 2578104512336&#45;&gt;2578111565168* -->
<g id="edge17" class="edge">
<title>2578104512336&#45;&gt;2578111565168*</title>
<path fill="none" stroke="black" d="M1210.01,-143.6C1218.84,-145.16 1227.4,-146.67 1235.19,-148.04"/>
<polygon fill="black" stroke="black" points="1234.42,-151.46 1244.88,-149.75 1235.64,-144.57 1234.42,-151.46"/>
</g>
<!-- 2578104512336+&#45;&gt;2578104512336 -->
<g id="edge7" class="edge">
<title>2578104512336+&#45;&gt;2578104512336</title>
<path fill="none" stroke="black" d="M990.28,-127.5C997.42,-127.5 1005.61,-127.5 1014.32,-127.5"/>
<polygon fill="black" stroke="black" points="1014.06,-131 1024.06,-127.5 1014.06,-124 1014.06,-131"/>
</g>
<!-- 2578110396752 -->
<g id="node20" class="node">
<title>2578110396752</title>
<polygon fill="none" stroke="black" points="324,-55.5 324,-91.5 535.5,-91.5 535.5,-55.5 324,-55.5"/>
<text xml:space="preserve" text-anchor="middle" x="347" y="-68.7" font-family="Times New Roman,serif" font-size="14.00">x1w1</text>
<polyline fill="none" stroke="black" points="370,-56 370,-91.5"/>
<text xml:space="preserve" text-anchor="middle" x="412.12" y="-68.7" font-family="Times New Roman,serif" font-size="14.00">data &#45;6.0000</text>
<polyline fill="none" stroke="black" points="454.25,-56 454.25,-91.5"/>
<text xml:space="preserve" text-anchor="middle" x="494.88" y="-68.7" font-family="Times New Roman,serif" font-size="14.00">grad 0.5000</text>
</g>
<!-- 2578110396752&#45;&gt;2578104634368+ -->
<g id="edge15" class="edge">
<title>2578110396752&#45;&gt;2578104634368+</title>
<path fill="none" stroke="black" d="M535.88,-90.52C544.59,-91.93 552.96,-93.29 560.56,-94.52"/>
<polygon fill="black" stroke="black" points="559.91,-97.96 570.34,-96.1 561.03,-91.05 559.91,-97.96"/>
</g>
<!-- 2578110396752*&#45;&gt;2578110396752 -->
<g id="edge8" class="edge">
<title>2578110396752*&#45;&gt;2578110396752</title>
<path fill="none" stroke="black" d="M288.42,-73.5C295.52,-73.5 303.68,-73.5 312.42,-73.5"/>
<polygon fill="black" stroke="black" points="312.24,-77 322.24,-73.5 312.24,-70 312.24,-77"/>
</g>
<!-- 2578111565168 -->
<g id="node22" class="node">
<title>2578111565168</title>
<polygon fill="none" stroke="black" points="1335.75,-136.5 1335.75,-172.5 1516.5,-172.5 1516.5,-136.5 1335.75,-136.5"/>
<text xml:space="preserve" text-anchor="middle" x="1345.62" y="-149.7" font-family="Times New Roman,serif" font-size="14.00"> </text>
<polyline fill="none" stroke="black" points="1355.5,-137 1355.5,-172.5"/>
<text xml:space="preserve" text-anchor="middle" x="1395.38" y="-149.7" font-family="Times New Roman,serif" font-size="14.00">data 1.7627</text>
<polyline fill="none" stroke="black" points="1435.25,-137 1435.25,-172.5"/>
<text xml:space="preserve" text-anchor="middle" x="1475.88" y="-149.7" font-family="Times New Roman,serif" font-size="14.00">grad 0.2500</text>
</g>
<!-- 2578111565168&#45;&gt;2578111565408exp -->
<g id="edge11" class="edge">
<title>2578111565168&#45;&gt;2578111565408exp</title>
<path fill="none" stroke="black" d="M1516.93,-154.5C1525.27,-154.5 1533.37,-154.5 1540.81,-154.5"/>
<polygon fill="black" stroke="black" points="1540.75,-158 1550.75,-154.5 1540.75,-151 1540.75,-158"/>
</g>
<!-- 2578111565168*&#45;&gt;2578111565168 -->
<g id="edge9" class="edge">
<title>2578111565168*&#45;&gt;2578111565168</title>
<path fill="none" stroke="black" d="M1300.12,-154.5C1307.26,-154.5 1315.45,-154.5 1324.14,-154.5"/>
<polygon fill="black" stroke="black" points="1323.86,-158 1333.86,-154.5 1323.86,-151 1323.86,-158"/>
</g>
<!-- 2578102593360 -->
<g id="node24" class="node">
<title>2578102593360</title>
<polygon fill="none" stroke="black" points="1642.5,-81.5 1642.5,-117.5 1827.75,-117.5 1827.75,-81.5 1642.5,-81.5"/>
<text xml:space="preserve" text-anchor="middle" x="1652.38" y="-94.7" font-family="Times New Roman,serif" font-size="14.00"> </text>
<polyline fill="none" stroke="black" points="1662.25,-82 1662.25,-117.5"/>
<text xml:space="preserve" text-anchor="middle" x="1702.12" y="-94.7" font-family="Times New Roman,serif" font-size="14.00">data 1.0000</text>
<polyline fill="none" stroke="black" points="1742,-82 1742,-117.5"/>
<text xml:space="preserve" text-anchor="middle" x="1784.88" y="-94.7" font-family="Times New Roman,serif" font-size="14.00">grad &#45;0.1036</text>
</g>
<!-- 2578102593360&#45;&gt;2578111026704+ -->
<g id="edge23" class="edge">
<title>2578102593360&#45;&gt;2578111026704+</title>
<path fill="none" stroke="black" d="M1828.15,-115.67C1836.89,-117.21 1845.36,-118.7 1853.08,-120.05"/>
<polygon fill="black" stroke="black" points="1852.2,-123.45 1862.66,-121.74 1853.41,-116.56 1852.2,-123.45"/>
</g>
<!-- 2578141551024 -->
<g id="node25" class="node">
<title>2578141551024</title>
<polygon fill="none" stroke="black" points="2175,-163.5 2175,-199.5 2355.75,-199.5 2355.75,-163.5 2175,-163.5"/>
<text xml:space="preserve" text-anchor="middle" x="2184.88" y="-176.7" font-family="Times New Roman,serif" font-size="14.00"> </text>
<polyline fill="none" stroke="black" points="2194.75,-164 2194.75,-199.5"/>
<text xml:space="preserve" text-anchor="middle" x="2234.62" y="-176.7" font-family="Times New Roman,serif" font-size="14.00">data 4.8284</text>
<polyline fill="none" stroke="black" points="2274.5,-164 2274.5,-199.5"/>
<text xml:space="preserve" text-anchor="middle" x="2315.12" y="-176.7" font-family="Times New Roman,serif" font-size="14.00">grad 0.1464</text>
</g>
<!-- 2578141551024&#45;&gt;2578101985440* -->
<g id="edge24" class="edge">
<title>2578141551024&#45;&gt;2578101985440*</title>
<path fill="none" stroke="black" d="M2356.13,-174.89C2417.15,-170.36 2499.7,-164.17 2572.5,-158.5 2580.38,-157.89 2588.83,-157.21 2596.87,-156.57"/>
<polygon fill="black" stroke="black" points="2597.06,-160.06 2606.75,-155.77 2596.5,-153.09 2597.06,-160.06"/>
</g>
<!-- 2578141551024+&#45;&gt;2578141551024 -->
<g id="edge10" class="edge">
<title>2578141551024+&#45;&gt;2578141551024</title>
<path fill="none" stroke="black" d="M1918.25,-181.5C1968.51,-181.5 2080.07,-181.5 2163.03,-181.5"/>
<polygon fill="black" stroke="black" points="2163.02,-185 2173.02,-181.5 2163.02,-178 2163.02,-185"/>
</g>
<!-- 2578111203280 -->
<g id="node27" class="node">
<title>2578111203280</title>
<polygon fill="none" stroke="black" points="3.75,-110.5 3.75,-146.5 194.25,-146.5 194.25,-110.5 3.75,-110.5"/>
<text xml:space="preserve" text-anchor="middle" x="18.5" y="-123.7" font-family="Times New Roman,serif" font-size="14.00">x2</text>
<polyline fill="none" stroke="black" points="33.25,-111 33.25,-146.5"/>
<text xml:space="preserve" text-anchor="middle" x="73.12" y="-123.7" font-family="Times New Roman,serif" font-size="14.00">data 0.0000</text>
<polyline fill="none" stroke="black" points="113,-111 113,-146.5"/>
<text xml:space="preserve" text-anchor="middle" x="153.62" y="-123.7" font-family="Times New Roman,serif" font-size="14.00">grad 0.5000</text>
</g>
<!-- 2578111203280&#45;&gt;2578104736016* -->
<g id="edge27" class="edge">
<title>2578111203280&#45;&gt;2578104736016*</title>
<path fill="none" stroke="black" d="M194.46,-128.5C204.21,-128.5 213.66,-128.5 222.21,-128.5"/>
<polygon fill="black" stroke="black" points="222.12,-132 232.12,-128.5 222.12,-125 222.12,-132"/>
</g>
<!-- 2578111110128 -->
<g id="node28" class="node">
<title>2578111110128</title>
<polygon fill="none" stroke="black" points="688.88,-137.5 688.88,-173.5 872.62,-173.5 872.62,-137.5 688.88,-137.5"/>
<text xml:space="preserve" text-anchor="middle" x="700.25" y="-150.7" font-family="Times New Roman,serif" font-size="14.00">b</text>
<polyline fill="none" stroke="black" points="711.62,-138 711.62,-173.5"/>
<text xml:space="preserve" text-anchor="middle" x="751.5" y="-150.7" font-family="Times New Roman,serif" font-size="14.00">data 6.8814</text>
<polyline fill="none" stroke="black" points="791.38,-138 791.38,-173.5"/>
<text xml:space="preserve" text-anchor="middle" x="832" y="-150.7" font-family="Times New Roman,serif" font-size="14.00">grad 0.5000</text>
</g>
<!-- 2578111110128&#45;&gt;2578104512336+ -->
<g id="edge18" class="edge">
<title>2578111110128&#45;&gt;2578104512336+</title>
<path fill="none" stroke="black" d="M872.93,-141.34C891.44,-138.46 909.89,-135.59 925.16,-133.22"/>
<polygon fill="black" stroke="black" points="925.32,-136.74 934.66,-131.75 924.25,-129.82 925.32,-136.74"/>
</g>
</g>
</svg>
