<?xml version="1.0" encoding="UTF-8" standalone="no"?>
<!DOCTYPE svg PUBLIC "-//W3C//DTD SVG 1.1//EN"
 "http://www.w3.org/Graphics/SVG/1.1/DTD/svg11.dtd">
<!-- Generated by graphviz version 14.1.3 (20260303.0454)
 -->
<!-- Pages: 1 -->
<svg width="504pt" height="128pt"
 viewBox="0.00 0.00 504.00 128.00" xmlns="http://www.w3.org/2000/svg" xmlns:xlink="http://www.w3.org/1999/xlink">
<g id="graph0" class="graph" transform="scale(1 1) rotate(0) translate(4 124)">
<polygon fill="white" stroke="none" points="-4,4 -4,-124 499.75,-124 499.75,4 -4,4"/>
<!-- 2697345310336 -->
<g id="node1" class="node">
<title>2697345310336</title>
<polygon fill="none" stroke="black" points="0,-83.5 0,-119.5 79.75,-119.5 79.75,-83.5 0,-83.5"/>
<text xml:space="preserve" text-anchor="middle" x="39.88" y="-96.7" font-family="Times New Roman,serif" font-size="14.00">data 4.0000</text>
</g>
<!-- 2697345430976* -->
<g id="node6" class="node">
<title>2697345430976*</title>
<ellipse fill="none" stroke="black" cx="142.75" cy="-73.5" rx="27" ry="18"/>
<text xml:space="preserve" text-anchor="middle" x="142.75" y="-68.45" font-family="Times New Roman,serif" font-size="14.00">*</text>
</g>
<!-- 2697345310336&#45;&gt;2697345430976* -->
<g id="edge6" class="edge">
<title>2697345310336&#45;&gt;2697345430976*</title>
<path fill="none" stroke="black" d="M80.16,-90.59C88.76,-88.21 97.81,-85.7 106.25,-83.35"/>
<polygon fill="black" stroke="black" points="107.11,-86.75 115.81,-80.7 105.24,-80 107.11,-86.75"/>
</g>
<!-- 2697345431280 -->
<g id="node2" class="node">
<title>2697345431280</title>
<polygon fill="none" stroke="black" points="416,-27.5 416,-63.5 495.75,-63.5 495.75,-27.5 416,-27.5"/>
<text xml:space="preserve" text-anchor="middle" x="455.88" y="-40.7" font-family="Times New Roman,serif" font-size="14.00">data 7.0000</text>
</g>
<!-- 2697345431280+ -->
<g id="node3" class="node">
<title>2697345431280+</title>
<ellipse fill="none" stroke="black" cx="353" cy="-45.5" rx="27" ry="18"/>
<text xml:space="preserve" text-anchor="middle" x="353" y="-40.45" font-family="Times New Roman,serif" font-size="14.00">+</text>
</g>
<!-- 2697345431280+&#45;&gt;2697345431280 -->
<g id="edge1" class="edge">
<title>2697345431280+&#45;&gt;2697345431280</title>
<path fill="none" stroke="black" d="M380.24,-45.5C387.71,-45.5 396.1,-45.5 404.49,-45.5"/>
<polygon fill="black" stroke="black" points="404.33,-49 414.33,-45.5 404.33,-42 404.33,-49"/>
</g>
<!-- 2697346483536 -->
<g id="node4" class="node">
<title>2697346483536</title>
<polygon fill="none" stroke="black" points="0,-28.5 0,-64.5 79.75,-64.5 79.75,-28.5 0,-28.5"/>
<text xml:space="preserve" text-anchor="middle" x="39.88" y="-41.7" font-family="Times New Roman,serif" font-size="14.00">data 2.0000</text>
</g>
<!-- 2697346483536&#45;&gt;2697345430976* -->
<g id="edge3" class="edge">
<title>2697346483536&#45;&gt;2697345430976*</title>
<path fill="none" stroke="black" d="M80.16,-57.02C88.76,-59.32 97.81,-61.74 106.25,-64"/>
<polygon fill="black" stroke="black" points="105.25,-67.35 115.81,-66.56 107.06,-60.59 105.25,-67.35"/>
</g>
<!-- 2697345430976 -->
<g id="node5" class="node">
<title>2697345430976</title>
<polygon fill="none" stroke="black" points="208,-55.5 208,-91.5 287.75,-91.5 287.75,-55.5 208,-55.5"/>
<text xml:space="preserve" text-anchor="middle" x="247.88" y="-68.7" font-family="Times New Roman,serif" font-size="14.00">data 8.0000</text>
</g>
<!-- 2697345430976&#45;&gt;2697345431280+ -->
<g id="edge4" class="edge">
<title>2697345430976&#45;&gt;2697345431280+</title>
<path fill="none" stroke="black" d="M288.16,-62.83C297.44,-60.31 307.29,-57.64 316.4,-55.17"/>
<polygon fill="black" stroke="black" points="317.26,-58.56 325.99,-52.56 315.42,-51.8 317.26,-58.56"/>
</g>
<!-- 2697345430976*&#45;&gt;2697345430976 -->
<g id="edge2" class="edge">
<title>2697345430976*&#45;&gt;2697345430976</title>
<path fill="none" stroke="black" d="M170.04,-73.5C178.1,-73.5 187.25,-73.5 196.35,-73.5"/>
<polygon fill="black" stroke="black" points="196.26,-77 206.26,-73.5 196.26,-70 196.26,-77"/>
</g>
<!-- 2697346484176 -->
<g id="node7" class="node">
<title>2697346484176</title>
<polygon fill="none" stroke="black" points="205.75,-0.5 205.75,-36.5 290,-36.5 290,-0.5 205.75,-0.5"/>
<text xml:space="preserve" text-anchor="middle" x="247.88" y="-13.7" font-family="Times New Roman,serif" font-size="14.00">data &#45;1.0000</text>
</g>
<!-- 2697346484176&#45;&gt;2697345431280+ -->
<g id="edge5" class="edge">
<title>2697346484176&#45;&gt;2697345431280+</title>
<path fill="none" stroke="black" d="M290.23,-29.33C298.86,-31.59 307.88,-33.95 316.29,-36.15"/>
<polygon fill="black" stroke="black" points="315.24,-39.49 325.8,-38.64 317.01,-32.72 315.24,-39.49"/>
</g>
</g>
</svg>
