<?xml version="1.0" encoding="UTF-8" standalone="no"?>
<!DOCTYPE svg PUBLIC "-//W3C//DTD SVG 1.1//EN"
 "http://www.w3.org/Graphics/SVG/1.1/DTD/svg11.dtd">
<!-- Generated by graphviz version 14.1.3 (20260303.0454)
 -->
<!-- Pages: 1 -->
<svg width="822pt" height="127pt"
 viewBox="0.00 0.00 822.00 127.00" xmlns="http://www.w3.org/2000/svg" xmlns:xlink="http://www.w3.org/1999/xlink">
<g id="graph0" class="graph" transform="scale(1 1) rotate(0) translate(4 123)">
<polygon fill="white" stroke="none" points="-4,4 -4,-123 817.75,-123 817.75,4 -4,4"/>
<!-- 2539803496016 -->
<g id="node1" class="node">
<title>2539803496016</title>
<polygon fill="none" stroke="black" points="309.75,-27.5 309.75,-63.5 493.5,-63.5 493.5,-27.5 309.75,-27.5"/>
<text xml:space="preserve" text-anchor="middle" x="321.12" y="-40.7" font-family="Times New Roman,serif" font-size="14.00">d</text>
<polyline fill="none" stroke="black" points="332.5,-28 332.5,-63.5"/>
<text xml:space="preserve" text-anchor="middle" x="372.38" y="-40.7" font-family="Times New Roman,serif" font-size="14.00">data 6.0000</text>
<polyline fill="none" stroke="black" points="412.25,-28 412.25,-63.5"/>
<text xml:space="preserve" text-anchor="middle" x="452.88" y="-40.7" font-family="Times New Roman,serif" font-size="14.00">grad 0.0000</text>
</g>
<!-- 2539809949520* -->
<g id="node5" class="node">
<title>2539809949520*</title>
<ellipse fill="none" stroke="black" cx="556.5" cy="-72.5" rx="27" ry="18"/>
<text xml:space="preserve" text-anchor="middle" x="556.5" y="-67.45" font-family="Times New Roman,serif" font-size="14.00">*</text>
</g>
<!-- 2539803496016&#45;&gt;2539809949520* -->
<g id="edge5" class="edge">
<title>2539803496016&#45;&gt;2539809949520*</title>
<path fill="none" stroke="black" d="M493.76,-61.6C502.59,-63.16 511.15,-64.67 518.94,-66.04"/>
<polygon fill="black" stroke="black" points="518.17,-69.46 528.63,-67.75 519.39,-62.57 518.17,-69.46"/>
</g>
<!-- 2539803496016+ -->
<g id="node2" class="node">
<title>2539803496016+</title>
<ellipse fill="none" stroke="black" cx="246.75" cy="-45.5" rx="27" ry="18"/>
<text xml:space="preserve" text-anchor="middle" x="246.75" y="-40.45" font-family="Times New Roman,serif" font-size="14.00">+</text>
</g>
<!-- 2539803496016+&#45;&gt;2539803496016 -->
<g id="edge1" class="edge">
<title>2539803496016+&#45;&gt;2539803496016</title>
<path fill="none" stroke="black" d="M274.03,-45.5C281.17,-45.5 289.36,-45.5 298.07,-45.5"/>
<polygon fill="black" stroke="black" points="297.81,-49 307.81,-45.5 297.81,-42 297.81,-49"/>
</g>
<!-- 2539803626768 -->
<g id="node3" class="node">
<title>2539803626768</title>
<polygon fill="none" stroke="black" points="0,-55.5 0,-91.5 183.75,-91.5 183.75,-55.5 0,-55.5"/>
<text xml:space="preserve" text-anchor="middle" x="11.38" y="-68.7" font-family="Times New Roman,serif" font-size="14.00">b</text>
<polyline fill="none" stroke="black" points="22.75,-56 22.75,-91.5"/>
<text xml:space="preserve" text-anchor="middle" x="62.62" y="-68.7" font-family="Times New Roman,serif" font-size="14.00">data 2.0000</text>
<polyline fill="none" stroke="black" points="102.5,-56 102.5,-91.5"/>
<text xml:space="preserve" text-anchor="middle" x="143.12" y="-68.7" font-family="Times New Roman,serif" font-size="14.00">grad 0.0000</text>
</g>
<!-- 2539803626768&#45;&gt;2539803496016+ -->
<g id="edge3" class="edge">
<title>2539803626768&#45;&gt;2539803496016+</title>
<path fill="none" stroke="black" d="M184.01,-56.81C192.84,-55.19 201.4,-53.62 209.19,-52.2"/>
<polygon fill="black" stroke="black" points="209.67,-55.67 218.88,-50.42 208.41,-48.78 209.67,-55.67"/>
</g>
<!-- 2539809949520 -->
<g id="node4" class="node">
<title>2539809949520</title>
<polygon fill="none" stroke="black" points="619.5,-54.5 619.5,-90.5 813.75,-90.5 813.75,-54.5 619.5,-54.5"/>
<text xml:space="preserve" text-anchor="middle" x="636.12" y="-67.7" font-family="Times New Roman,serif" font-size="14.00">out</text>
<polyline fill="none" stroke="black" points="652.75,-55 652.75,-90.5"/>
<text xml:space="preserve" text-anchor="middle" x="692.62" y="-67.7" font-family="Times New Roman,serif" font-size="14.00">data 6.0000</text>
<polyline fill="none" stroke="black" points="732.5,-55 732.5,-90.5"/>
<text xml:space="preserve" text-anchor="middle" x="773.12" y="-67.7" font-family="Times New Roman,serif" font-size="14.00">grad 1.0000</text>
</g>
<!-- 2539809949520*&#45;&gt;2539809949520 -->
<g id="edge2" class="edge">
<title>2539809949520*&#45;&gt;2539809949520</title>
<path fill="none" stroke="black" d="M583.97,-72.5C591.08,-72.5 599.22,-72.5 607.9,-72.5"/>
<polygon fill="black" stroke="black" points="607.63,-76 617.63,-72.5 607.63,-69 607.63,-76"/>
</g>
<!-- 2539801178000 -->
<g id="node6" class="node">
<title>2539801178000</title>
<polygon fill="none" stroke="black" points="0.38,-0.5 0.38,-36.5 183.38,-36.5 183.38,-0.5 0.38,-0.5"/>
<text xml:space="preserve" text-anchor="middle" x="11.38" y="-13.7" font-family="Times New Roman,serif" font-size="14.00">a</text>
<polyline fill="none" stroke="black" points="22.38,-1 22.38,-36.5"/>
<text xml:space="preserve" text-anchor="middle" x="62.25" y="-13.7" font-family="Times New Roman,serif" font-size="14.00">data 4.0000</text>
<polyline fill="none" stroke="black" points="102.12,-1 102.12,-36.5"/>
<text xml:space="preserve" text-anchor="middle" x="142.75" y="-13.7" font-family="Times New Roman,serif" font-size="14.00">grad 0.0000</text>
</g>
<!-- 2539801178000&#45;&gt;2539803496016+ -->
<g id="edge4" class="edge">
<title>2539801178000&#45;&gt;2539803496016+</title>
<path fill="none" stroke="black" d="M183.57,-34.52C192.45,-36.09 201.07,-37.61 208.91,-38.99"/>
<polygon fill="black" stroke="black" points="208.22,-42.42 218.67,-40.72 209.43,-35.53 208.22,-42.42"/>
</g>
<!-- 2539810036176 -->
<g id="node7" class="node">
<title>2539810036176</title>
<polygon fill="none" stroke="black" points="310.12,-82.5 310.12,-118.5 493.12,-118.5 493.12,-82.5 310.12,-82.5"/>
<text xml:space="preserve" text-anchor="middle" x="321.12" y="-95.7" font-family="Times New Roman,serif" font-size="14.00">c</text>
<polyline fill="none" stroke="black" points="332.12,-83 332.12,-118.5"/>
<text xml:space="preserve" text-anchor="middle" x="372" y="-95.7" font-family="Times New Roman,serif" font-size="14.00">data 1.0000</text>
<polyline fill="none" stroke="black" points="411.88,-83 411.88,-118.5"/>
<text xml:space="preserve" text-anchor="middle" x="452.5" y="-95.7" font-family="Times New Roman,serif" font-size="14.00">grad 0.0000</text>
</g>
<!-- 2539810036176&#45;&gt;2539809949520* -->
<g id="edge6" class="edge">
<title>2539810036176&#45;&gt;2539809949520*</title>
<path fill="none" stroke="black" d="M493.32,-83.89C502.2,-82.26 510.82,-80.68 518.66,-79.25"/>
<polygon fill="black" stroke="black" points="519.22,-82.7 528.42,-77.46 517.96,-75.82 519.22,-82.7"/>
</g>
</g>
</svg>
