<?xml version="1.0" encoding="UTF-8" standalone="no"?>
<!DOCTYPE svg PUBLIC "-//W3C//DTD SVG 1.1//EN"
 "http://www.w3.org/Graphics/SVG/1.1/DTD/svg11.dtd">
<!-- Generated by graphviz version 14.1.3 (20260303.0454)
 -->
<!-- Pages: 1 -->
<svg width="2887pt" height="239pt"
 viewBox="0.00 0.00 2887.00 239.00" xmlns="http://www.w3.org/2000/svg" xmlns:xlink="http://www.w3.org/1999/xlink">
<g id="graph0" class="graph" transform="scale(1 1) rotate(0) translate(4 235)">
<polygon fill="white" stroke="none" points="-4,4 -4,-235 2883.25,-235 2883.25,4 -4,4"/>
<!-- 2926797369904 -->
<g id="node1" class="node">
<title>2926797369904</title>
<polygon fill="none" stroke="black" points="2.25,-194.5 2.25,-230.5 195.75,-230.5 195.75,-194.5 2.25,-194.5"/>
<text xml:space="preserve" text-anchor="middle" x="18.5" y="-207.7" font-family="Times New Roman,serif" font-size="14.00">w2</text>
<polyline fill="none" stroke="black" points="34.75,-195 34.75,-230.5"/>
<text xml:space="preserve" text-anchor="middle" x="74.62" y="-207.7" font-family="Times New Roman,serif" font-size="14.00">data 1.0000</text>
<polyline fill="none" stroke="black" points="114.5,-195 114.5,-230.5"/>
<text xml:space="preserve" text-anchor="middle" x="155.12" y="-207.7" font-family="Times New Roman,serif" font-size="14.00">grad 0.0000</text>
</g>
<!-- 2926791836592* -->
<g id="node11" class="node">
<title>2926791836592*</title>
<ellipse fill="none" stroke="black" cx="261" cy="-157.5" rx="27" ry="18"/>
<text xml:space="preserve" text-anchor="middle" x="261" y="-152.45" font-family="Times New Roman,serif" font-size="14.00">*</text>
</g>
<!-- 2926797369904&#45;&gt;2926791836592* -->
<g id="edge15" class="edge">
<title>2926797369904&#45;&gt;2926791836592*</title>
<path fill="none" stroke="black" d="M172.12,-194.01C180.9,-191.35 189.7,-188.5 198,-185.5 208.09,-181.86 218.82,-177.27 228.47,-172.88"/>
<polygon fill="black" stroke="black" points="229.86,-176.09 237.45,-168.69 226.9,-169.75 229.86,-176.09"/>
</g>
<!-- 2926798459968 -->
<g id="node2" class="node">
<title>2926798459968</title>
<polygon fill="none" stroke="black" points="2698.5,-54.5 2698.5,-90.5 2879.25,-90.5 2879.25,-54.5 2698.5,-54.5"/>
<text xml:space="preserve" text-anchor="middle" x="2708.38" y="-67.7" font-family="Times New Roman,serif" font-size="14.00"> </text>
<polyline fill="none" stroke="black" points="2718.25,-55 2718.25,-90.5"/>
<text xml:space="preserve" text-anchor="middle" x="2758.12" y="-67.7" font-family="Times New Roman,serif" font-size="14.00">data 0.7071</text>
<polyline fill="none" stroke="black" points="2798,-55 2798,-90.5"/>
<text xml:space="preserve" text-anchor="middle" x="2838.62" y="-67.7" font-family="Times New Roman,serif" font-size="14.00">grad 1.0000</text>
</g>
<!-- 2926798459968* -->
<g id="node3" class="node">
<title>2926798459968*</title>
<ellipse fill="none" stroke="black" cx="2635.5" cy="-72.5" rx="27" ry="18"/>
<text xml:space="preserve" text-anchor="middle" x="2635.5" y="-67.45" font-family="Times New Roman,serif" font-size="14.00">*</text>
</g>
<!-- 2926798459968*&#45;&gt;2926798459968 -->
<g id="edge1" class="edge">
<title>2926798459968*&#45;&gt;2926798459968</title>
<path fill="none" stroke="black" d="M2662.87,-72.5C2670.01,-72.5 2678.2,-72.5 2686.89,-72.5"/>
<polygon fill="black" stroke="black" points="2686.61,-76 2696.61,-72.5 2686.61,-69 2686.61,-76"/>
</g>
<!-- 2926798377552 -->
<g id="node4" class="node">
<title>2926798377552</title>
<polygon fill="none" stroke="black" points="2391.75,-31.5 2391.75,-67.5 2572.5,-67.5 2572.5,-31.5 2391.75,-31.5"/>
<text xml:space="preserve" text-anchor="middle" x="2401.62" y="-44.7" font-family="Times New Roman,serif" font-size="14.00"> </text>
<polyline fill="none" stroke="black" points="2411.5,-32 2411.5,-67.5"/>
<text xml:space="preserve" text-anchor="middle" x="2451.38" y="-44.7" font-family="Times New Roman,serif" font-size="14.00">data 0.1464</text>
<polyline fill="none" stroke="black" points="2491.25,-32 2491.25,-67.5"/>
<text xml:space="preserve" text-anchor="middle" x="2531.88" y="-44.7" font-family="Times New Roman,serif" font-size="14.00">grad 4.8284</text>
</g>
<!-- 2926798377552&#45;&gt;2926798459968* -->
<g id="edge14" class="edge">
<title>2926798377552&#45;&gt;2926798459968*</title>
<path fill="none" stroke="black" d="M2572.93,-63.15C2581.54,-64.45 2589.89,-65.72 2597.53,-66.88"/>
<polygon fill="black" stroke="black" points="2596.96,-70.34 2607.37,-68.38 2598.01,-63.41 2596.96,-70.34"/>
</g>
<!-- 2926798377552pow -->
<g id="node5" class="node">
<title>2926798377552pow</title>
<ellipse fill="none" stroke="black" cx="2265.38" cy="-45.5" rx="27" ry="18"/>
<text xml:space="preserve" text-anchor="middle" x="2265.38" y="-40.45" font-family="Times New Roman,serif" font-size="14.00">pow</text>
</g>
<!-- 2926798377552pow&#45;&gt;2926798377552 -->
<g id="edge2" class="edge">
<title>2926798377552pow&#45;&gt;2926798377552</title>
<path fill="none" stroke="black" d="M2292.71,-45.99C2314.85,-46.4 2347.98,-47.02 2380.32,-47.62"/>
<polygon fill="black" stroke="black" points="2380.13,-51.12 2390.19,-47.81 2380.26,-44.12 2380.13,-51.12"/>
</g>
<!-- 2926791608400 -->
<g id="node6" class="node">
<title>2926791608400</title>
<polygon fill="none" stroke="black" points="1026,-83.5 1026,-119.5 1209.75,-119.5 1209.75,-83.5 1026,-83.5"/>
<text xml:space="preserve" text-anchor="middle" x="1037.38" y="-96.7" font-family="Times New Roman,serif" font-size="14.00">n</text>
<polyline fill="none" stroke="black" points="1048.75,-84 1048.75,-119.5"/>
<text xml:space="preserve" text-anchor="middle" x="1088.62" y="-96.7" font-family="Times New Roman,serif" font-size="14.00">data 0.8814</text>
<polyline fill="none" stroke="black" points="1128.5,-84 1128.5,-119.5"/>
<text xml:space="preserve" text-anchor="middle" x="1169.12" y="-96.7" font-family="Times New Roman,serif" font-size="14.00">grad 0.5000</text>
</g>
<!-- 2926798670256* -->
<g id="node24" class="node">
<title>2926798670256*</title>
<ellipse fill="none" stroke="black" cx="1272.75" cy="-73.5" rx="27" ry="18"/>
<text xml:space="preserve" text-anchor="middle" x="1272.75" y="-68.45" font-family="Times New Roman,serif" font-size="14.00">*</text>
</g>
<!-- 2926791608400&#45;&gt;2926798670256* -->
<g id="edge11" class="edge">
<title>2926791608400&#45;&gt;2926798670256*</title>
<path fill="none" stroke="black" d="M1210.01,-84.81C1218.84,-83.19 1227.4,-81.62 1235.19,-80.2"/>
<polygon fill="black" stroke="black" points="1235.67,-83.67 1244.88,-78.42 1234.41,-76.78 1235.67,-83.67"/>
</g>
<!-- 2926791608400+ -->
<g id="node7" class="node">
<title>2926791608400+</title>
<ellipse fill="none" stroke="black" cx="963" cy="-101.5" rx="27" ry="18"/>
<text xml:space="preserve" text-anchor="middle" x="963" y="-96.45" font-family="Times New Roman,serif" font-size="14.00">+</text>
</g>
<!-- 2926791608400+&#45;&gt;2926791608400 -->
<g id="edge3" class="edge">
<title>2926791608400+&#45;&gt;2926791608400</title>
<path fill="none" stroke="black" d="M990.28,-101.5C997.42,-101.5 1005.61,-101.5 1014.32,-101.5"/>
<polygon fill="black" stroke="black" points="1014.06,-105 1024.06,-101.5 1014.06,-98 1014.06,-105"/>
</g>
<!-- 2926823838832 -->
<g id="node8" class="node">
<title>2926823838832</title>
<polygon fill="none" stroke="black" points="2175,-82.5 2175,-118.5 2355.75,-118.5 2355.75,-82.5 2175,-82.5"/>
<text xml:space="preserve" text-anchor="middle" x="2184.88" y="-95.7" font-family="Times New Roman,serif" font-size="14.00"> </text>
<polyline fill="none" stroke="black" points="2194.75,-83 2194.75,-118.5"/>
<text xml:space="preserve" text-anchor="middle" x="2234.62" y="-95.7" font-family="Times New Roman,serif" font-size="14.00">data 4.8284</text>
<polyline fill="none" stroke="black" points="2274.5,-83 2274.5,-118.5"/>
<text xml:space="preserve" text-anchor="middle" x="2315.12" y="-95.7" font-family="Times New Roman,serif" font-size="14.00">grad 0.1464</text>
</g>
<!-- 2926823838832&#45;&gt;2926798459968* -->
<g id="edge25" class="edge">
<title>2926823838832&#45;&gt;2926798459968*</title>
<path fill="none" stroke="black" d="M2356.13,-93.89C2417.15,-89.36 2499.7,-83.17 2572.5,-77.5 2580.38,-76.89 2588.83,-76.21 2596.87,-75.57"/>
<polygon fill="black" stroke="black" points="2597.06,-79.06 2606.75,-74.77 2596.5,-72.09 2597.06,-79.06"/>
</g>
<!-- 2926823838832+ -->
<g id="node9" class="node">
<title>2926823838832+</title>
<ellipse fill="none" stroke="black" cx="1890.75" cy="-100.5" rx="27" ry="18"/>
<text xml:space="preserve" text-anchor="middle" x="1890.75" y="-95.45" font-family="Times New Roman,serif" font-size="14.00">+</text>
</g>
<!-- 2926823838832+&#45;&gt;2926823838832 -->
<g id="edge4" class="edge">
<title>2926823838832+&#45;&gt;2926823838832</title>
<path fill="none" stroke="black" d="M1918.25,-100.5C1968.51,-100.5 2080.07,-100.5 2163.03,-100.5"/>
<polygon fill="black" stroke="black" points="2163.02,-104 2173.02,-100.5 2163.02,-97 2163.02,-104"/>
</g>
<!-- 2926791836592 -->
<g id="node10" class="node">
<title>2926791836592</title>
<polygon fill="none" stroke="black" points="326.25,-139.5 326.25,-175.5 533.25,-175.5 533.25,-139.5 326.25,-139.5"/>
<text xml:space="preserve" text-anchor="middle" x="349.25" y="-152.7" font-family="Times New Roman,serif" font-size="14.00">x2w2</text>
<polyline fill="none" stroke="black" points="372.25,-140 372.25,-175.5"/>
<text xml:space="preserve" text-anchor="middle" x="412.12" y="-152.7" font-family="Times New Roman,serif" font-size="14.00">data 0.0000</text>
<polyline fill="none" stroke="black" points="452,-140 452,-175.5"/>
<text xml:space="preserve" text-anchor="middle" x="492.62" y="-152.7" font-family="Times New Roman,serif" font-size="14.00">grad 0.5000</text>
</g>
<!-- 2926791739328+ -->
<g id="node26" class="node">
<title>2926791739328+</title>
<ellipse fill="none" stroke="black" cx="598.5" cy="-129.5" rx="27" ry="18"/>
<text xml:space="preserve" text-anchor="middle" x="598.5" y="-124.45" font-family="Times New Roman,serif" font-size="14.00">+</text>
</g>
<!-- 2926791836592&#45;&gt;2926791739328+ -->
<g id="edge19" class="edge">
<title>2926791836592&#45;&gt;2926791739328+</title>
<path fill="none" stroke="black" d="M533.51,-140.25C543.16,-138.62 552.45,-137.06 560.82,-135.66"/>
<polygon fill="black" stroke="black" points="561.2,-139.15 570.48,-134.04 560.04,-132.24 561.2,-139.15"/>
</g>
<!-- 2926791836592*&#45;&gt;2926791836592 -->
<g id="edge5" class="edge">
<title>2926791836592*&#45;&gt;2926791836592</title>
<path fill="none" stroke="black" d="M288.42,-157.5C296.08,-157.5 304.96,-157.5 314.47,-157.5"/>
<polygon fill="black" stroke="black" points="314.37,-161 324.37,-157.5 314.37,-154 314.37,-161"/>
</g>
<!-- 2926798670496 -->
<g id="node12" class="node">
<title>2926798670496</title>
<polygon fill="none" stroke="black" points="1644.75,-55.5 1644.75,-91.5 1825.5,-91.5 1825.5,-55.5 1644.75,-55.5"/>
<text xml:space="preserve" text-anchor="middle" x="1654.62" y="-68.7" font-family="Times New Roman,serif" font-size="14.00"> </text>
<polyline fill="none" stroke="black" points="1664.5,-56 1664.5,-91.5"/>
<text xml:space="preserve" text-anchor="middle" x="1704.38" y="-68.7" font-family="Times New Roman,serif" font-size="14.00">data 5.8284</text>
<polyline fill="none" stroke="black" points="1744.25,-56 1744.25,-91.5"/>
<text xml:space="preserve" text-anchor="middle" x="1784.88" y="-68.7" font-family="Times New Roman,serif" font-size="14.00">grad 0.0429</text>
</g>
<!-- 2926798670496&#45;&gt;2926823838832+ -->
<g id="edge27" class="edge">
<title>2926798670496&#45;&gt;2926823838832+</title>
<path fill="none" stroke="black" d="M1825.93,-89.28C1835.48,-90.96 1844.76,-92.59 1853.14,-94.07"/>
<polygon fill="black" stroke="black" points="1852.39,-97.49 1862.85,-95.77 1853.61,-90.59 1852.39,-97.49"/>
</g>
<!-- 2926798377360+ -->
<g id="node21" class="node">
<title>2926798377360+</title>
<ellipse fill="none" stroke="black" cx="1890.75" cy="-45.5" rx="27" ry="18"/>
<text xml:space="preserve" text-anchor="middle" x="1890.75" y="-40.45" font-family="Times New Roman,serif" font-size="14.00">+</text>
</g>
<!-- 2926798670496&#45;&gt;2926798377360+ -->
<g id="edge22" class="edge">
<title>2926798670496&#45;&gt;2926798377360+</title>
<path fill="none" stroke="black" d="M1825.93,-57.13C1835.48,-55.39 1844.76,-53.7 1853.14,-52.17"/>
<polygon fill="black" stroke="black" points="1853.64,-55.64 1862.85,-50.4 1852.39,-48.75 1853.64,-55.64"/>
</g>
<!-- 2926798670496exp -->
<g id="node13" class="node">
<title>2926798670496exp</title>
<ellipse fill="none" stroke="black" cx="1579.5" cy="-73.5" rx="27" ry="18"/>
<text xml:space="preserve" text-anchor="middle" x="1579.5" y="-68.45" font-family="Times New Roman,serif" font-size="14.00">exp</text>
</g>
<!-- 2926798670496exp&#45;&gt;2926798670496 -->
<g id="edge6" class="edge">
<title>2926798670496exp&#45;&gt;2926798670496</title>
<path fill="none" stroke="black" d="M1606.91,-73.5C1614.62,-73.5 1623.54,-73.5 1633.01,-73.5"/>
<polygon fill="black" stroke="black" points="1632.82,-77 1642.82,-73.5 1632.82,-70 1632.82,-77"/>
</g>
<!-- 2926797298320 -->
<g id="node14" class="node">
<title>2926797298320</title>
<polygon fill="none" stroke="black" points="1.5,-84.5 1.5,-120.5 196.5,-120.5 196.5,-84.5 1.5,-84.5"/>
<text xml:space="preserve" text-anchor="middle" x="16.25" y="-97.7" font-family="Times New Roman,serif" font-size="14.00">x1</text>
<polyline fill="none" stroke="black" points="31,-85 31,-120.5"/>
<text xml:space="preserve" text-anchor="middle" x="70.88" y="-97.7" font-family="Times New Roman,serif" font-size="14.00">data 2.0000</text>
<polyline fill="none" stroke="black" points="110.75,-85 110.75,-120.5"/>
<text xml:space="preserve" text-anchor="middle" x="153.62" y="-97.7" font-family="Times New Roman,serif" font-size="14.00">grad &#45;1.5000</text>
</g>
<!-- 2926797370208* -->
<g id="node19" class="node">
<title>2926797370208*</title>
<ellipse fill="none" stroke="black" cx="261" cy="-102.5" rx="27" ry="18"/>
<text xml:space="preserve" text-anchor="middle" x="261" y="-97.45" font-family="Times New Roman,serif" font-size="14.00">*</text>
</g>
<!-- 2926797298320&#45;&gt;2926797370208* -->
<g id="edge21" class="edge">
<title>2926797298320&#45;&gt;2926797370208*</title>
<path fill="none" stroke="black" d="M196.76,-102.5C205.77,-102.5 214.47,-102.5 222.4,-102.5"/>
<polygon fill="black" stroke="black" points="222.25,-106 232.25,-102.5 222.25,-99 222.25,-106"/>
</g>
<!-- 2926823838384 -->
<g id="node15" class="node">
<title>2926823838384</title>
<polygon fill="none" stroke="black" points="1642.5,-110.5 1642.5,-146.5 1827.75,-146.5 1827.75,-110.5 1642.5,-110.5"/>
<text xml:space="preserve" text-anchor="middle" x="1652.38" y="-123.7" font-family="Times New Roman,serif" font-size="14.00"> </text>
<polyline fill="none" stroke="black" points="1662.25,-111 1662.25,-146.5"/>
<text xml:space="preserve" text-anchor="middle" x="1704.38" y="-123.7" font-family="Times New Roman,serif" font-size="14.00">data &#45;1.0000</text>
<polyline fill="none" stroke="black" points="1746.5,-111 1746.5,-146.5"/>
<text xml:space="preserve" text-anchor="middle" x="1787.12" y="-123.7" font-family="Times New Roman,serif" font-size="14.00">grad 0.1464</text>
</g>
<!-- 2926823838384&#45;&gt;2926823838832+ -->
<g id="edge18" class="edge">
<title>2926823838384&#45;&gt;2926823838832+</title>
<path fill="none" stroke="black" d="M1828.15,-111.73C1836.89,-110.13 1845.36,-108.59 1853.08,-107.18"/>
<polygon fill="black" stroke="black" points="1853.45,-110.67 1862.66,-105.44 1852.19,-103.79 1853.45,-110.67"/>
</g>
<!-- 2926798030160 -->
<g id="node16" class="node">
<title>2926798030160</title>
<polygon fill="none" stroke="black" points="1027.5,-28.5 1027.5,-64.5 1208.25,-64.5 1208.25,-28.5 1027.5,-28.5"/>
<text xml:space="preserve" text-anchor="middle" x="1037.38" y="-41.7" font-family="Times New Roman,serif" font-size="14.00"> </text>
<polyline fill="none" stroke="black" points="1047.25,-29 1047.25,-64.5"/>
<text xml:space="preserve" text-anchor="middle" x="1087.12" y="-41.7" font-family="Times New Roman,serif" font-size="14.00">data 2.0000</text>
<polyline fill="none" stroke="black" points="1127,-29 1127,-64.5"/>
<text xml:space="preserve" text-anchor="middle" x="1167.62" y="-41.7" font-family="Times New Roman,serif" font-size="14.00">grad 0.2203</text>
</g>
<!-- 2926798030160&#45;&gt;2926798670256* -->
<g id="edge28" class="edge">
<title>2926798030160&#45;&gt;2926798670256*</title>
<path fill="none" stroke="black" d="M1208.69,-62.36C1217.94,-64 1226.93,-65.58 1235.08,-67.02"/>
<polygon fill="black" stroke="black" points="1234.41,-70.46 1244.87,-68.75 1235.63,-63.57 1234.41,-70.46"/>
</g>
<!-- 2926798194000 -->
<g id="node17" class="node">
<title>2926798194000</title>
<polygon fill="none" stroke="black" points="3.75,-139.5 3.75,-175.5 194.25,-175.5 194.25,-139.5 3.75,-139.5"/>
<text xml:space="preserve" text-anchor="middle" x="18.5" y="-152.7" font-family="Times New Roman,serif" font-size="14.00">x2</text>
<polyline fill="none" stroke="black" points="33.25,-140 33.25,-175.5"/>
<text xml:space="preserve" text-anchor="middle" x="73.12" y="-152.7" font-family="Times New Roman,serif" font-size="14.00">data 0.0000</text>
<polyline fill="none" stroke="black" points="113,-140 113,-175.5"/>
<text xml:space="preserve" text-anchor="middle" x="153.62" y="-152.7" font-family="Times New Roman,serif" font-size="14.00">grad 0.5000</text>
</g>
<!-- 2926798194000&#45;&gt;2926791836592* -->
<g id="edge16" class="edge">
<title>2926798194000&#45;&gt;2926791836592*</title>
<path fill="none" stroke="black" d="M194.46,-157.5C204.21,-157.5 213.66,-157.5 222.21,-157.5"/>
<polygon fill="black" stroke="black" points="222.12,-161 232.12,-157.5 222.12,-154 222.12,-161"/>
</g>
<!-- 2926797370208 -->
<g id="node18" class="node">
<title>2926797370208</title>
<polygon fill="none" stroke="black" points="324,-84.5 324,-120.5 535.5,-120.5 535.5,-84.5 324,-84.5"/>
<text xml:space="preserve" text-anchor="middle" x="347" y="-97.7" font-family="Times New Roman,serif" font-size="14.00">x1w1</text>
<polyline fill="none" stroke="black" points="370,-85 370,-120.5"/>
<text xml:space="preserve" text-anchor="middle" x="412.12" y="-97.7" font-family="Times New Roman,serif" font-size="14.00">data &#45;6.0000</text>
<polyline fill="none" stroke="black" points="454.25,-85 454.25,-120.5"/>
<text xml:space="preserve" text-anchor="middle" x="494.88" y="-97.7" font-family="Times New Roman,serif" font-size="14.00">grad 0.5000</text>
</g>
<!-- 2926797370208&#45;&gt;2926791739328+ -->
<g id="edge26" class="edge">
<title>2926797370208&#45;&gt;2926791739328+</title>
<path fill="none" stroke="black" d="M535.88,-119.52C544.59,-120.93 552.96,-122.29 560.56,-123.52"/>
<polygon fill="black" stroke="black" points="559.91,-126.96 570.34,-125.1 561.03,-120.05 559.91,-126.96"/>
</g>
<!-- 2926797370208*&#45;&gt;2926797370208 -->
<g id="edge7" class="edge">
<title>2926797370208*&#45;&gt;2926797370208</title>
<path fill="none" stroke="black" d="M288.42,-102.5C295.52,-102.5 303.68,-102.5 312.42,-102.5"/>
<polygon fill="black" stroke="black" points="312.24,-106 322.24,-102.5 312.24,-99 312.24,-106"/>
</g>
<!-- 2926798377360 -->
<g id="node20" class="node">
<title>2926798377360</title>
<polygon fill="none" stroke="black" points="1953.75,-27.5 1953.75,-63.5 2139,-63.5 2139,-27.5 1953.75,-27.5"/>
<text xml:space="preserve" text-anchor="middle" x="1963.62" y="-40.7" font-family="Times New Roman,serif" font-size="14.00"> </text>
<polyline fill="none" stroke="black" points="1973.5,-28 1973.5,-63.5"/>
<text xml:space="preserve" text-anchor="middle" x="2013.38" y="-40.7" font-family="Times New Roman,serif" font-size="14.00">data 6.8284</text>
<polyline fill="none" stroke="black" points="2053.25,-28 2053.25,-63.5"/>
<text xml:space="preserve" text-anchor="middle" x="2096.12" y="-40.7" font-family="Times New Roman,serif" font-size="14.00">grad &#45;0.1036</text>
</g>
<!-- 2926798377360&#45;&gt;2926798377552pow -->
<g id="edge24" class="edge">
<title>2926798377360&#45;&gt;2926798377552pow</title>
<path fill="none" stroke="black" d="M2139.4,-45.5C2170.04,-45.5 2202.46,-45.5 2226.61,-45.5"/>
<polygon fill="black" stroke="black" points="2226.57,-49 2236.57,-45.5 2226.57,-42 2226.57,-49"/>
</g>
<!-- 2926798377360+&#45;&gt;2926798377360 -->
<g id="edge8" class="edge">
<title>2926798377360+&#45;&gt;2926798377360</title>
<path fill="none" stroke="black" d="M1918.16,-45.5C1925.2,-45.5 1933.25,-45.5 1941.8,-45.5"/>
<polygon fill="black" stroke="black" points="1941.79,-49 1951.79,-45.5 1941.79,-42 1941.79,-49"/>
</g>
<!-- 2926789830064 -->
<g id="node22" class="node">
<title>2926789830064</title>
<polygon fill="none" stroke="black" points="1642.5,-0.5 1642.5,-36.5 1827.75,-36.5 1827.75,-0.5 1642.5,-0.5"/>
<text xml:space="preserve" text-anchor="middle" x="1652.38" y="-13.7" font-family="Times New Roman,serif" font-size="14.00"> </text>
<polyline fill="none" stroke="black" points="1662.25,-1 1662.25,-36.5"/>
<text xml:space="preserve" text-anchor="middle" x="1702.12" y="-13.7" font-family="Times New Roman,serif" font-size="14.00">data 1.0000</text>
<polyline fill="none" stroke="black" points="1742,-1 1742,-36.5"/>
<text xml:space="preserve" text-anchor="middle" x="1784.88" y="-13.7" font-family="Times New Roman,serif" font-size="14.00">grad &#45;0.1036</text>
</g>
<!-- 2926789830064&#45;&gt;2926798377360+ -->
<g id="edge13" class="edge">
<title>2926789830064&#45;&gt;2926798377360+</title>
<path fill="none" stroke="black" d="M1828.15,-34.67C1836.89,-36.21 1845.36,-37.7 1853.08,-39.05"/>
<polygon fill="black" stroke="black" points="1852.2,-42.45 1862.66,-40.74 1853.41,-35.56 1852.2,-42.45"/>
</g>
<!-- 2926798670256 -->
<g id="node23" class="node">
<title>2926798670256</title>
<polygon fill="none" stroke="black" points="1335.75,-55.5 1335.75,-91.5 1516.5,-91.5 1516.5,-55.5 1335.75,-55.5"/>
<text xml:space="preserve" text-anchor="middle" x="1345.62" y="-68.7" font-family="Times New Roman,serif" font-size="14.00"> </text>
<polyline fill="none" stroke="black" points="1355.5,-56 1355.5,-91.5"/>
<text xml:space="preserve" text-anchor="middle" x="1395.38" y="-68.7" font-family="Times New Roman,serif" font-size="14.00">data 1.7627</text>
<polyline fill="none" stroke="black" points="1435.25,-56 1435.25,-91.5"/>
<text xml:space="preserve" text-anchor="middle" x="1475.88" y="-68.7" font-family="Times New Roman,serif" font-size="14.00">grad 0.2500</text>
</g>
<!-- 2926798670256&#45;&gt;2926798670496exp -->
<g id="edge20" class="edge">
<title>2926798670256&#45;&gt;2926798670496exp</title>
<path fill="none" stroke="black" d="M1516.93,-73.5C1525.27,-73.5 1533.37,-73.5 1540.81,-73.5"/>
<polygon fill="black" stroke="black" points="1540.75,-77 1550.75,-73.5 1540.75,-70 1540.75,-77"/>
</g>
<!-- 2926798670256*&#45;&gt;2926798670256 -->
<g id="edge9" class="edge">
<title>2926798670256*&#45;&gt;2926798670256</title>
<path fill="none" stroke="black" d="M1300.12,-73.5C1307.26,-73.5 1315.45,-73.5 1324.14,-73.5"/>
<polygon fill="black" stroke="black" points="1323.86,-77 1333.86,-73.5 1323.86,-70 1323.86,-77"/>
</g>
<!-- 2926791739328 -->
<g id="node25" class="node">
<title>2926791739328</title>
<polygon fill="none" stroke="black" points="661.5,-111.5 661.5,-147.5 900,-147.5 900,-111.5 661.5,-111.5"/>
<text xml:space="preserve" text-anchor="middle" x="698" y="-124.7" font-family="Times New Roman,serif" font-size="14.00">submation</text>
<polyline fill="none" stroke="black" points="734.5,-112 734.5,-147.5"/>
<text xml:space="preserve" text-anchor="middle" x="776.62" y="-124.7" font-family="Times New Roman,serif" font-size="14.00">data &#45;6.0000</text>
<polyline fill="none" stroke="black" points="818.75,-112 818.75,-147.5"/>
<text xml:space="preserve" text-anchor="middle" x="859.38" y="-124.7" font-family="Times New Roman,serif" font-size="14.00">grad 0.5000</text>
</g>
<!-- 2926791739328&#45;&gt;2926791608400+ -->
<g id="edge12" class="edge">
<title>2926791739328&#45;&gt;2926791608400+</title>
<path fill="none" stroke="black" d="M900.47,-111.06C909.21,-109.7 917.55,-108.41 925.11,-107.23"/>
<polygon fill="black" stroke="black" points="925.45,-110.72 934.79,-105.73 924.38,-103.8 925.45,-110.72"/>
</g>
<!-- 2926791739328+&#45;&gt;2926791739328 -->
<g id="edge10" class="edge">
<title>2926791739328+&#45;&gt;2926791739328</title>
<path fill="none" stroke="black" d="M625.71,-129.5C632.78,-129.5 640.93,-129.5 649.72,-129.5"/>
<polygon fill="black" stroke="black" points="649.64,-133 659.64,-129.5 649.64,-126 649.64,-133"/>
</g>
<!-- 2926798194640 -->
<g id="node27" class="node">
<title>2926798194640</title>
<polygon fill="none" stroke="black" points="0,-29.5 0,-65.5 198,-65.5 198,-29.5 0,-29.5"/>
<text xml:space="preserve" text-anchor="middle" x="16.25" y="-42.7" font-family="Times New Roman,serif" font-size="14.00">w1</text>
<polyline fill="none" stroke="black" points="32.5,-30 32.5,-65.5"/>
<text xml:space="preserve" text-anchor="middle" x="74.62" y="-42.7" font-family="Times New Roman,serif" font-size="14.00">data &#45;3.0000</text>
<polyline fill="none" stroke="black" points="116.75,-30 116.75,-65.5"/>
<text xml:space="preserve" text-anchor="middle" x="157.38" y="-42.7" font-family="Times New Roman,serif" font-size="14.00">grad 1.0000</text>
</g>
<!-- 2926798194640&#45;&gt;2926797370208* -->
<g id="edge23" class="edge">
<title>2926798194640&#45;&gt;2926797370208*</title>
<path fill="none" stroke="black" d="M168.91,-65.94C178.74,-68.93 188.67,-72.15 198,-75.5 207.96,-79.07 218.58,-83.47 228.18,-87.68"/>
<polygon fill="black" stroke="black" points="226.54,-90.78 237.1,-91.67 229.4,-84.39 226.54,-90.78"/>
</g>
<!-- 2926798084560 -->
<g id="node28" class="node">
<title>2926798084560</title>
<polygon fill="none" stroke="black" points="688.88,-56.5 688.88,-92.5 872.62,-92.5 872.62,-56.5 688.88,-56.5"/>
<text xml:space="preserve" text-anchor="middle" x="700.25" y="-69.7" font-family="Times New Roman,serif" font-size="14.00">b</text>
<polyline fill="none" stroke="black" points="711.62,-57 711.62,-92.5"/>
<text xml:space="preserve" text-anchor="middle" x="751.5" y="-69.7" font-family="Times New Roman,serif" font-size="14.00">data 6.8814</text>
<polyline fill="none" stroke="black" points="791.38,-57 791.38,-92.5"/>
<text xml:space="preserve" text-anchor="middle" x="832" y="-69.7" font-family="Times New Roman,serif" font-size="14.00">grad 0.5000</text>
</g>
<!-- 2926798084560&#45;&gt;2926791608400+ -->
<g id="edge17" class="edge">
<title>2926798084560&#45;&gt;2926791608400+</title>
<path fill="none" stroke="black" d="M872.93,-88.16C891.44,-90.93 909.89,-93.69 925.16,-95.98"/>
<polygon fill="black" stroke="black" points="924.25,-99.39 934.66,-97.41 925.29,-92.46 924.25,-99.39"/>
</g>
</g>
</svg>
