<?xml version="1.0" encoding="UTF-8" standalone="no"?>
<!DOCTYPE svg PUBLIC "-//W3C//DTD SVG 1.1//EN"
 "http://www.w3.org/Graphics/SVG/1.1/DTD/svg11.dtd">
<!-- Generated by graphviz version 14.1.3 (20260303.0454)
 -->
<!-- Pages: 1 -->
<svg width="1528pt" height="210pt"
 viewBox="0.00 0.00 1528.00 210.00" xmlns="http://www.w3.org/2000/svg" xmlns:xlink="http://www.w3.org/1999/xlink">
<g id="graph0" class="graph" transform="scale(1 1) rotate(0) translate(4 206)">
<polygon fill="white" stroke="none" points="-4,4 -4,-206 1523.5,-206 1523.5,4 -4,4"/>
<!-- 1493077045808 -->
<g id="node1" class="node">
<title>1493077045808</title>
<polygon fill="none" stroke="black" points="324,-55.5 324,-91.5 535.5,-91.5 535.5,-55.5 324,-55.5"/>
<text xml:space="preserve" text-anchor="middle" x="347" y="-68.7" font-family="Times New Roman,serif" font-size="14.00">x1w1</text>
<polyline fill="none" stroke="black" points="370,-56 370,-91.5"/>
<text xml:space="preserve" text-anchor="middle" x="412.12" y="-68.7" font-family="Times New Roman,serif" font-size="14.00">data &#45;6.0000</text>
<polyline fill="none" stroke="black" points="454.25,-56 454.25,-91.5"/>
<text xml:space="preserve" text-anchor="middle" x="494.88" y="-68.7" font-family="Times New Roman,serif" font-size="14.00">grad 0.5000</text>
</g>
<!-- 1493071416592+ -->
<g id="node9" class="node">
<title>1493071416592+</title>
<ellipse fill="none" stroke="black" cx="598.5" cy="-100.5" rx="27" ry="18"/>
<text xml:space="preserve" text-anchor="middle" x="598.5" y="-95.45" font-family="Times New Roman,serif" font-size="14.00">+</text>
</g>
<!-- 1493077045808&#45;&gt;1493071416592+ -->
<g id="edge7" class="edge">
<title>1493077045808&#45;&gt;1493071416592+</title>
<path fill="none" stroke="black" d="M535.88,-90.52C544.59,-91.93 552.96,-93.29 560.56,-94.52"/>
<polygon fill="black" stroke="black" points="559.91,-97.96 570.34,-96.1 561.03,-91.05 559.91,-97.96"/>
</g>
<!-- 1493077045808* -->
<g id="node2" class="node">
<title>1493077045808*</title>
<ellipse fill="none" stroke="black" cx="261" cy="-73.5" rx="27" ry="18"/>
<text xml:space="preserve" text-anchor="middle" x="261" y="-68.45" font-family="Times New Roman,serif" font-size="14.00">*</text>
</g>
<!-- 1493077045808*&#45;&gt;1493077045808 -->
<g id="edge1" class="edge">
<title>1493077045808*&#45;&gt;1493077045808</title>
<path fill="none" stroke="black" d="M288.42,-73.5C295.52,-73.5 303.68,-73.5 312.42,-73.5"/>
<polygon fill="black" stroke="black" points="312.24,-77 322.24,-73.5 312.24,-70 312.24,-77"/>
</g>
<!-- 1493071284304 -->
<g id="node3" class="node">
<title>1493071284304</title>
<polygon fill="none" stroke="black" points="1026,-109.5 1026,-145.5 1209.75,-145.5 1209.75,-109.5 1026,-109.5"/>
<text xml:space="preserve" text-anchor="middle" x="1037.38" y="-122.7" font-family="Times New Roman,serif" font-size="14.00">n</text>
<polyline fill="none" stroke="black" points="1048.75,-110 1048.75,-145.5"/>
<text xml:space="preserve" text-anchor="middle" x="1088.62" y="-122.7" font-family="Times New Roman,serif" font-size="14.00">data 0.8814</text>
<polyline fill="none" stroke="black" points="1128.5,-110 1128.5,-145.5"/>
<text xml:space="preserve" text-anchor="middle" x="1169.12" y="-122.7" font-family="Times New Roman,serif" font-size="14.00">grad 0.5000</text>
</g>
<!-- 1493077820752tan -->
<g id="node11" class="node">
<title>1493077820752tan</title>
<ellipse fill="none" stroke="black" cx="1272.75" cy="-127.5" rx="27" ry="18"/>
<text xml:space="preserve" text-anchor="middle" x="1272.75" y="-122.45" font-family="Times New Roman,serif" font-size="14.00">tan</text>
</g>
<!-- 1493071284304&#45;&gt;1493077820752tan -->
<g id="edge13" class="edge">
<title>1493071284304&#45;&gt;1493077820752tan</title>
<path fill="none" stroke="black" d="M1210.01,-127.5C1218.39,-127.5 1226.52,-127.5 1233.98,-127.5"/>
<polygon fill="black" stroke="black" points="1233.95,-131 1243.95,-127.5 1233.95,-124 1233.95,-131"/>
</g>
<!-- 1493071284304+ -->
<g id="node4" class="node">
<title>1493071284304+</title>
<ellipse fill="none" stroke="black" cx="963" cy="-127.5" rx="27" ry="18"/>
<text xml:space="preserve" text-anchor="middle" x="963" y="-122.45" font-family="Times New Roman,serif" font-size="14.00">+</text>
</g>
<!-- 1493071284304+&#45;&gt;1493071284304 -->
<g id="edge2" class="edge">
<title>1493071284304+&#45;&gt;1493071284304</title>
<path fill="none" stroke="black" d="M990.28,-127.5C997.42,-127.5 1005.61,-127.5 1014.32,-127.5"/>
<polygon fill="black" stroke="black" points="1014.06,-131 1024.06,-127.5 1014.06,-124 1014.06,-131"/>
</g>
<!-- 1493076941456 -->
<g id="node5" class="node">
<title>1493076941456</title>
<polygon fill="none" stroke="black" points="1.5,-55.5 1.5,-91.5 196.5,-91.5 196.5,-55.5 1.5,-55.5"/>
<text xml:space="preserve" text-anchor="middle" x="16.25" y="-68.7" font-family="Times New Roman,serif" font-size="14.00">x1</text>
<polyline fill="none" stroke="black" points="31,-56 31,-91.5"/>
<text xml:space="preserve" text-anchor="middle" x="70.88" y="-68.7" font-family="Times New Roman,serif" font-size="14.00">data 2.0000</text>
<polyline fill="none" stroke="black" points="110.75,-56 110.75,-91.5"/>
<text xml:space="preserve" text-anchor="middle" x="153.62" y="-68.7" font-family="Times New Roman,serif" font-size="14.00">grad &#45;1.5000</text>
</g>
<!-- 1493076941456&#45;&gt;1493077045808* -->
<g id="edge8" class="edge">
<title>1493076941456&#45;&gt;1493077045808*</title>
<path fill="none" stroke="black" d="M196.76,-73.5C205.77,-73.5 214.47,-73.5 222.4,-73.5"/>
<polygon fill="black" stroke="black" points="222.25,-77 232.25,-73.5 222.25,-70 222.25,-77"/>
</g>
<!-- 1493077891808 -->
<g id="node6" class="node">
<title>1493077891808</title>
<polygon fill="none" stroke="black" points="688.88,-137.5 688.88,-173.5 872.62,-173.5 872.62,-137.5 688.88,-137.5"/>
<text xml:space="preserve" text-anchor="middle" x="700.25" y="-150.7" font-family="Times New Roman,serif" font-size="14.00">b</text>
<polyline fill="none" stroke="black" points="711.62,-138 711.62,-173.5"/>
<text xml:space="preserve" text-anchor="middle" x="751.5" y="-150.7" font-family="Times New Roman,serif" font-size="14.00">data 6.8814</text>
<polyline fill="none" stroke="black" points="791.38,-138 791.38,-173.5"/>
<text xml:space="preserve" text-anchor="middle" x="832" y="-150.7" font-family="Times New Roman,serif" font-size="14.00">grad 0.5000</text>
</g>
<!-- 1493077891808&#45;&gt;1493071284304+ -->
<g id="edge9" class="edge">
<title>1493077891808&#45;&gt;1493071284304+</title>
<path fill="none" stroke="black" d="M872.93,-141.34C891.44,-138.46 909.89,-135.59 925.16,-133.22"/>
<polygon fill="black" stroke="black" points="925.32,-136.74 934.66,-131.75 924.25,-129.82 925.32,-136.74"/>
</g>
<!-- 1493077045504 -->
<g id="node7" class="node">
<title>1493077045504</title>
<polygon fill="none" stroke="black" points="2.25,-165.5 2.25,-201.5 195.75,-201.5 195.75,-165.5 2.25,-165.5"/>
<text xml:space="preserve" text-anchor="middle" x="18.5" y="-178.7" font-family="Times New Roman,serif" font-size="14.00">w2</text>
<polyline fill="none" stroke="black" points="34.75,-166 34.75,-201.5"/>
<text xml:space="preserve" text-anchor="middle" x="74.62" y="-178.7" font-family="Times New Roman,serif" font-size="14.00">data 1.0000</text>
<polyline fill="none" stroke="black" points="114.5,-166 114.5,-201.5"/>
<text xml:space="preserve" text-anchor="middle" x="155.12" y="-178.7" font-family="Times New Roman,serif" font-size="14.00">grad 0.0000</text>
</g>
<!-- 1493071512496* -->
<g id="node14" class="node">
<title>1493071512496*</title>
<ellipse fill="none" stroke="black" cx="261" cy="-128.5" rx="27" ry="18"/>
<text xml:space="preserve" text-anchor="middle" x="261" y="-123.45" font-family="Times New Roman,serif" font-size="14.00">*</text>
</g>
<!-- 1493077045504&#45;&gt;1493071512496* -->
<g id="edge6" class="edge">
<title>1493077045504&#45;&gt;1493071512496*</title>
<path fill="none" stroke="black" d="M172.12,-165.01C180.9,-162.35 189.7,-159.5 198,-156.5 208.09,-152.86 218.82,-148.27 228.47,-143.88"/>
<polygon fill="black" stroke="black" points="229.86,-147.09 237.45,-139.69 226.9,-140.75 229.86,-147.09"/>
</g>
<!-- 1493071416592 -->
<g id="node8" class="node">
<title>1493071416592</title>
<polygon fill="none" stroke="black" points="661.5,-82.5 661.5,-118.5 900,-118.5 900,-82.5 661.5,-82.5"/>
<text xml:space="preserve" text-anchor="middle" x="698" y="-95.7" font-family="Times New Roman,serif" font-size="14.00">submation</text>
<polyline fill="none" stroke="black" points="734.5,-83 734.5,-118.5"/>
<text xml:space="preserve" text-anchor="middle" x="776.62" y="-95.7" font-family="Times New Roman,serif" font-size="14.00">data &#45;6.0000</text>
<polyline fill="none" stroke="black" points="818.75,-83 818.75,-118.5"/>
<text xml:space="preserve" text-anchor="middle" x="859.38" y="-95.7" font-family="Times New Roman,serif" font-size="14.00">grad 0.5000</text>
</g>
<!-- 1493071416592&#45;&gt;1493071284304+ -->
<g id="edge11" class="edge">
<title>1493071416592&#45;&gt;1493071284304+</title>
<path fill="none" stroke="black" d="M900.47,-118.28C909.21,-119.59 917.55,-120.84 925.11,-121.97"/>
<polygon fill="black" stroke="black" points="924.38,-125.4 934.79,-123.42 925.42,-118.48 924.38,-125.4"/>
</g>
<!-- 1493071416592+&#45;&gt;1493071416592 -->
<g id="edge3" class="edge">
<title>1493071416592+&#45;&gt;1493071416592</title>
<path fill="none" stroke="black" d="M625.71,-100.5C632.78,-100.5 640.93,-100.5 649.72,-100.5"/>
<polygon fill="black" stroke="black" points="649.64,-104 659.64,-100.5 649.64,-97 649.64,-104"/>
</g>
<!-- 1493077820752 -->
<g id="node10" class="node">
<title>1493077820752</title>
<polygon fill="none" stroke="black" points="1335.75,-109.5 1335.75,-145.5 1519.5,-145.5 1519.5,-109.5 1335.75,-109.5"/>
<text xml:space="preserve" text-anchor="middle" x="1347.12" y="-122.7" font-family="Times New Roman,serif" font-size="14.00">o</text>
<polyline fill="none" stroke="black" points="1358.5,-110 1358.5,-145.5"/>
<text xml:space="preserve" text-anchor="middle" x="1398.38" y="-122.7" font-family="Times New Roman,serif" font-size="14.00">data 0.7071</text>
<polyline fill="none" stroke="black" points="1438.25,-110 1438.25,-145.5"/>
<text xml:space="preserve" text-anchor="middle" x="1478.88" y="-122.7" font-family="Times New Roman,serif" font-size="14.00">grad 1.0000</text>
</g>
<!-- 1493077820752tan&#45;&gt;1493077820752 -->
<g id="edge4" class="edge">
<title>1493077820752tan&#45;&gt;1493077820752</title>
<path fill="none" stroke="black" d="M1300.03,-127.5C1307.17,-127.5 1315.36,-127.5 1324.07,-127.5"/>
<polygon fill="black" stroke="black" points="1323.81,-131 1333.81,-127.5 1323.81,-124 1323.81,-131"/>
</g>
<!-- 1493078000976 -->
<g id="node12" class="node">
<title>1493078000976</title>
<polygon fill="none" stroke="black" points="3.75,-110.5 3.75,-146.5 194.25,-146.5 194.25,-110.5 3.75,-110.5"/>
<text xml:space="preserve" text-anchor="middle" x="18.5" y="-123.7" font-family="Times New Roman,serif" font-size="14.00">x2</text>
<polyline fill="none" stroke="black" points="33.25,-111 33.25,-146.5"/>
<text xml:space="preserve" text-anchor="middle" x="73.12" y="-123.7" font-family="Times New Roman,serif" font-size="14.00">data 0.0000</text>
<polyline fill="none" stroke="black" points="113,-111 113,-146.5"/>
<text xml:space="preserve" text-anchor="middle" x="153.62" y="-123.7" font-family="Times New Roman,serif" font-size="14.00">grad 0.5000</text>
</g>
<!-- 1493078000976&#45;&gt;1493071512496* -->
<g id="edge10" class="edge">
<title>1493078000976&#45;&gt;1493071512496*</title>
<path fill="none" stroke="black" d="M194.46,-128.5C204.21,-128.5 213.66,-128.5 222.21,-128.5"/>
<polygon fill="black" stroke="black" points="222.12,-132 232.12,-128.5 222.12,-125 222.12,-132"/>
</g>
<!-- 1493071512496 -->
<g id="node13" class="node">
<title>1493071512496</title>
<polygon fill="none" stroke="black" points="326.25,-110.5 326.25,-146.5 533.25,-146.5 533.25,-110.5 326.25,-110.5"/>
<text xml:space="preserve" text-anchor="middle" x="349.25" y="-123.7" font-family="Times New Roman,serif" font-size="14.00">x2w2</text>
<polyline fill="none" stroke="black" points="372.25,-111 372.25,-146.5"/>
<text xml:space="preserve" text-anchor="middle" x="412.12" y="-123.7" font-family="Times New Roman,serif" font-size="14.00">data 0.0000</text>
<polyline fill="none" stroke="black" points="452,-111 452,-146.5"/>
<text xml:space="preserve" text-anchor="middle" x="492.62" y="-123.7" font-family="Times New Roman,serif" font-size="14.00">grad 0.5000</text>
</g>
<!-- 1493071512496&#45;&gt;1493071416592+ -->
<g id="edge14" class="edge">
<title>1493071512496&#45;&gt;1493071416592+</title>
<path fill="none" stroke="black" d="M533.51,-111.25C543.16,-109.62 552.45,-108.06 560.82,-106.66"/>
<polygon fill="black" stroke="black" points="561.2,-110.15 570.48,-105.04 560.04,-103.24 561.2,-110.15"/>
</g>
<!-- 1493071512496*&#45;&gt;1493071512496 -->
<g id="edge5" class="edge">
<title>1493071512496*&#45;&gt;1493071512496</title>
<path fill="none" stroke="black" d="M288.42,-128.5C296.08,-128.5 304.96,-128.5 314.47,-128.5"/>
<polygon fill="black" stroke="black" points="314.37,-132 324.37,-128.5 314.37,-125 314.37,-132"/>
</g>
<!-- 1493078001616 -->
<g id="node15" class="node">
<title>1493078001616</title>
<polygon fill="none" stroke="black" points="0,-0.5 0,-36.5 198,-36.5 198,-0.5 0,-0.5"/>
<text xml:space="preserve" text-anchor="middle" x="16.25" y="-13.7" font-family="Times New Roman,serif" font-size="14.00">w1</text>
<polyline fill="none" stroke="black" points="32.5,-1 32.5,-36.5"/>
<text xml:space="preserve" text-anchor="middle" x="74.62" y="-13.7" font-family="Times New Roman,serif" font-size="14.00">data &#45;3.0000</text>
<polyline fill="none" stroke="black" points="116.75,-1 116.75,-36.5"/>
<text xml:space="preserve" text-anchor="middle" x="157.38" y="-13.7" font-family="Times New Roman,serif" font-size="14.00">grad 1.0000</text>
</g>
<!-- 1493078001616&#45;&gt;1493077045808* -->
<g id="edge12" class="edge">
<title>1493078001616&#45;&gt;1493077045808*</title>
<path fill="none" stroke="black" d="M168.91,-36.94C178.74,-39.93 188.67,-43.15 198,-46.5 207.96,-50.07 218.58,-54.47 228.18,-58.68"/>
<polygon fill="black" stroke="black" points="226.54,-61.78 237.1,-62.67 229.4,-55.39 226.54,-61.78"/>
</g>
</g>
</svg>
